<?xml version="1.0" standalone="no"?>
<!DOCTYPE svg PUBLIC "-//W3C//DTD SVG 20010904//EN"
 "http://www.w3.org/TR/2001/REC-SVG-20010904/DTD/svg10.dtd">
<svg version="1.0" xmlns="http://www.w3.org/2000/svg"
 width="512.000000pt" height="512.000000pt" viewBox="0 0 512.000000 512.000000"
 preserveAspectRatio="xMidYMid meet">

<g transform="translate(0.000000,512.000000) scale(0.100000,-0.100000)"
fill="#000000" stroke="none">
<path d="M3377 5109 c-59 -14 -115 -47 -164 -95 -156 -156 -129 -424 54 -542
83 -53 139 -62 403 -62 l235 0 -496 -496 -497 -497 -28 20 c-53 37 -198 114
-289 153 -407 173 -880 193 -1310 53 -540 -175 -992 -618 -1176 -1153 -40
-114 -74 -255 -90 -365 -17 -117 -17 -395 0 -510 60 -411 241 -776 531 -1065
424 -425 1009 -616 1606 -525 791 120 1425 748 1555 1542 71 436 -21 902 -252
1280 l-41 66 494 494 493 493 5 -257 c5 -238 8 -262 29 -316 29 -73 102 -149
178 -185 50 -23 71 -27 148 -27 77 0 98 4 147 27 65 30 137 98 166 155 40 78
42 120 42 821 0 568 -2 687 -15 735 -33 126 -126 219 -252 252 -48 13 -166 15
-748 14 -379 -1 -707 -5 -728 -10z m-1281 -2104 c580 -119 986 -664 924 -1243
-31 -294 -145 -529 -352 -728 -456 -437 -1172 -430 -1618 16 -446 446 -452
1173 -13 1624 276 283 677 409 1059 331z"/>
</g>
</svg>
