<?xml version="1.0" standalone="no"?>
<!DOCTYPE svg PUBLIC "-//W3C//DTD SVG 20010904//EN"
 "http://www.w3.org/TR/2001/REC-SVG-20010904/DTD/svg10.dtd">
<svg version="1.0" xmlns="http://www.w3.org/2000/svg"
 width="512.000000pt" height="512.000000pt" viewBox="0 0 512.000000 512.000000"
 preserveAspectRatio="xMidYMid meet">

<g transform="translate(0.000000,512.000000) scale(0.100000,-0.100000)"
fill="#000000" stroke="none">
<path d="M2430 5114 c-201 -24 -358 -68 -515 -144 -415 -201 -718 -588 -810
-1035 -65 -319 -27 -641 110 -931 118 -250 285 -446 516 -604 149 -102 349
-187 517 -220 l62 -13 0 -358 0 -359 -372 0 c-370 0 -373 0 -423 -24 -107 -49
-168 -164 -146 -273 14 -70 60 -136 119 -170 l47 -28 385 -5 385 -5 5 -385 5
-385 28 -47 c99 -169 335 -169 434 0 l28 47 5 385 5 385 385 5 385 5 47 28
c59 34 105 100 119 170 22 109 -39 224 -146 273 -50 24 -53 24 -422 24 l-373
0 0 359 0 358 63 13 c228 45 486 175 669 338 241 214 409 503 477 822 22 104
32 285 22 400 -29 330 -136 596 -341 843 -220 265 -538 451 -875 512 -89 15
-328 27 -395 19z m325 -520 c367 -71 665 -358 761 -734 29 -114 27 -366 -4
-475 -53 -183 -142 -335 -269 -456 -129 -123 -274 -205 -443 -250 -71 -20
-110 -23 -240 -23 -130 0 -169 3 -240 23 -348 93 -610 352 -710 701 -31 108
-39 317 -16 430 44 216 132 378 285 528 229 224 551 318 876 256z"/>
</g>
</svg>
